{
  "accessors": [
    {
      "bufferView": 2,
      "componentType": 5126,
      "count": 65532,
      "max": [
        1.0,
        1.0,
        0.08358599990606308
      ],
      "min": [
        -1.0,
        -1.0,
        -3.5000000934815034e-05
      ],
      "type": "VEC3"
    },
    {
      "bufferView": 2,
      "byteOffset": 786384,
      "componentType": 5126,
      "count": 65532,
      "max": [
        0.8246220946311951,
        0.8234967589378357,
        1.0
      ],
      "min": [
        -0.7852431535720825,
        -0.8203263878822327,
        0.49531546235084534
      ],
      "type": "VEC3"
    },
    {
      "bufferView": 3,
      "componentType": 5126,
      "count": 65532,
      "max": [
        1.0,
        0.11733428388834,
        0.7881938219070435,
        1.0
      ],
      "min": [
        0.5652363896369934,
        -0.09249082207679749,
        -0.8249289393424988,
        1.0
      ],
      "type": "VEC4"
    },
    {
      "bufferView": 1,
      "componentType": 5126,
      "count": 65532,
      "max": [
        1.0,
        1.0
      ],
      "min": [
        0.0019529999699443579,
        0.0019529999699443579
      ],
      "type": "VEC2"
    },
    {
      "bufferView": 0,
      "componentType": 5125,
      "count": 387051,
      "type": "SCALAR"
    },
    {
      "bufferView": 2,
      "byteOffset": 1572768,
      "componentType": 5126,
      "count": 65532,
      "max": [
        0.7338550090789795,
        1.0,
        0.3486579954624176
      ],
      "min": [
        -1.0,
        -0.7377690076828003,
        1.9999999494757503e-05
      ],
      "type": "VEC3"
    },
    {
      "bufferView": 2,
      "byteOffset": 2359152,
      "componentType": 5126,
      "count": 65532,
      "max": [
        0.9297343492507935,
        0.9448481202125549,
        0.9999984502792358
      ],
      "min": [
        -0.9426308274269104,
        -0.9379557371139526,
        0.24189722537994385
      ],
      "type": "VEC3"
    },
    {
      "bufferView": 3,
      "byteOffset": 1048512,
      "componentType": 5126,
      "count": 65532,
      "max": [
        1.0,
        0.2963724434375763,
        0.9641531705856323,
        1.0
      ],
      "min": [
        0.265332967042923,
        -0.12312100827693939,
        -0.9327383041381836,
        1.0
      ],
      "type": "VEC4"
    },
    {
      "bufferView": 1,
      "byteOffset": 524256,
      "componentType": 5126,
      "count": 65532,
      "max": [
        0.8671879768371582,
        1.0
      ],
      "min": [
        0.0019529999699443579,
        0.1328119933605194
      ],
      "type": "VEC2"
    },
    {
      "bufferView": 0,
      "byteOffset": 1548204,
      "componentType": 5125,
      "count": 386661,
      "type": "SCALAR"
    },
    {
      "bufferView": 2,
      "byteOffset": 3145536,
      "componentType": 5126,
      "count": 65532,
      "max": [
        0.7260270118713379,
        1.0,
        0.32960501313209534
      ],
      "min": [
        -1.0,
        0.021525999531149864,
        6.399999983841553e-05
      ],
      "type": "VEC3"
    },
    {
      "bufferView": 2,
      "byteOffset": 3931920,
      "componentType": 5126,
      "count": 65532,
      "max": [
        0.9297343492507935,
        0.9448481202125549,
        0.9999977350234985
      ],
      "min": [
        -0.9218575954437256,
        -0.8937761783599854,
        0.20599766075611115
      ],
      "type": "VEC3"
    },
    {
      "bufferView": 3,
      "byteOffset": 2097024,
      "componentType": 5126,
      "count": 65532,
      "max": [
        1.0,
        0.18565800786018372,
        0.9218959212303162,
        1.0
      ],
      "min": [
        0.28973430395126343,
        -0.15789641439914703,
        -0.9571071863174438,
        1.0
      ],
      "type": "VEC4"
    },
    {
      "bufferView": 1,
      "byteOffset": 1048512,
      "componentType": 5126,
      "count": 65532,
      "max": [
        0.8632810115814209,
        1.0
      ],
      "min": [
        0.0019529999699443579,
        0.5117189884185791
      ],
      "type": "VEC2"
    },
    {
      "bufferView": 0,
      "byteOffset": 3094848,
      "componentType": 5125,
      "count": 389034,
      "type": "SCALAR"
    },
    {
      "bufferView": 2,
      "byteOffset": 4718304,
      "componentType": 5126,
      "count": 65532,
      "max": [
        0.2876709997653961,
        1.0,
        0.3760429918766022
      ],
      "min": [
        -1.0,
        -0.2563599944114685,
        -2.4000000848900527e-05
      ],
      "type": "VEC3"
    },
    {
      "bufferView": 2,
      "byteOffset": 5504688,
      "componentType": 5126,
      "count": 65532,
      "max": [
        0.961118221282959,
        0.950628936290741,
        1.0
      ],
      "min": [
        -0.8985001444816589,
        -0.9397255778312683,
        0.23741114139556885
      ],
      "type": "VEC3"
    },
    {
      "bufferView": 3,
      "byteOffset": 3145536,
      "componentType": 5126,
      "count": 65532,
      "max": [
        1.0,
        0.21484293043613434,
        0.9347447156906128,
        1.0
      ],
      "min": [
        0.26247406005859375,
        -0.2091096043586731,
        -0.9649372696876526,
        1.0
      ],
      "type": "VEC4"
    },
    {
      "bufferView": 1,
      "byteOffset": 1572768,
      "componentType": 5126,
      "count": 65532,
      "max": [
        0.6445310115814209,
        1.0
      ],
      "min": [
        0.0019529999699443579,
        0.37304699420928955
      ],
      "type": "VEC2"
    },
    {
      "bufferView": 0,
      "byteOffset": 4650984,
      "componentType": 5125,
      "count": 387183,
      "type": "SCALAR"
    },
    {
      "bufferView": 2,
      "byteOffset": 6291072,
      "componentType": 5126,
      "count": 3074,
      "max": [
        0.021525999531149864,
        0.021525999531149864,
        0.285396009683609
      ],
      "min": [
        -1.0,
        -0.029354000464081764,
        0.0026579999830573797
      ],
      "type": "VEC3"
    },
    {
      "bufferView": 2,
      "byteOffset": 6327960,
      "componentType": 5126,
      "count": 3074,
      "max": [
        0.49502572417259216,
        0.8506195545196533,
        0.9989464282989502
      ],
      "min": [
        -0.8347371816635132,
        -0.7991625666618347,
        0.4966300129890442
      ],
      "type": "VEC3"
    },
    {
      "bufferView": 3,
      "byteOffset": 4194048,
      "componentType": 5126,
      "count": 3074,
      "max": [
        0.9999999403953552,
        0.06573357433080673,
        0.8438031077384949,
        1.0
      ],
      "min": [
        0.5366209149360657,
        -0.054269760847091675,
        -0.5295596122741699,
        1.0
      ],
      "type": "VEC4"
    },
    {
      "bufferView": 1,
      "byteOffset": 2097024,
      "componentType": 5126,
      "count": 3074,
      "max": [
        0.5117189884185791,
        0.5117189884185791
      ],
      "min": [
        0.0019529999699443579,
        0.48632800579071045
      ],
      "type": "VEC2"
    },
    {
      "bufferView": 0,
      "byteOffset": 6199716,
      "componentType": 5125,
      "count": 16797,
      "type": "SCALAR"
    }
  ],
  "asset": {
    "extras": {
      "author": "solararchitect (https://sketchfab.com/solararchitect)",
      "license": "CC-BY-NC-4.0 (http://creativecommons.org/licenses/by-nc/4.0/)",
      "source": "https://sketchfab.com/3d-models/mountain-glacier-b649edc901764e40a7918964d1b76c5d",
      "title": "Mountain Glacier"
    },
    "generator": "Sketchfab-12.66.0",
    "version": "2.0"
  },
  "bufferViews": [
    {
      "buffer": 0,
      "byteLength": 6266904,
      "name": "floatBufferViews",
      "target": 34963
    },
    {
      "buffer": 0,
      "byteLength": 2121616,
      "byteOffset": 6266904,
      "byteStride": 8,
      "name": "floatBufferViews",
      "target": 34962
    },
    {
      "buffer": 0,
      "byteLength": 6364848,
      "byteOffset": 8388520,
      "byteStride": 12,
      "name": "floatBufferViews",
      "target": 34962
    },
    {
      "buffer": 0,
      "byteLength": 4243232,
      "byteOffset": 14753368,
      "byteStride": 16,
      "name": "floatBufferViews",
      "target": 34962
    }
  ],
  "buffers": [
    {
      "byteLength": 18996600,
      "uri": "scene.bin"
    }
  ],
  "images": [
    {
      "uri": "textures/Default_Material_baseColor.jpeg"
    },
    {
      "uri": "textures/Default_Material_metallicRoughness.png"
    },
    {
      "uri": "textures/Default_Material_normal.png"
    }
  ],
  "materials": [
    {
      "doubleSided": true,
      "name": "Default_Material",
      "normalTexture": {
        "index": 2,
        "scale": 0.8
      },
      "occlusionTexture": {
        "index": 1
      },
      "pbrMetallicRoughness": {
        "baseColorTexture": {
          "index": 0
        },
        "metallicFactor": 0.0,
        "metallicRoughnessTexture": {
          "index": 1
        },
        "roughnessFactor": 0.899934460166051
      }
    }
  ],
  "meshes": [
    {
      "name": "Object_0",
      "primitives": [
        {
          "attributes": {
            "NORMAL": 1,
            "POSITION": 0,
            "TANGENT": 2,
            "TEXCOORD_0": 3
          },
          "indices": 4,
          "material": 0,
          "mode": 4
        }
      ]
    },
    {
      "name": "Object_1",
      "primitives": [
        {
          "attributes": {
            "NORMAL": 6,
            "POSITION": 5,
            "TANGENT": 7,
            "TEXCOORD_0": 8
          },
          "indices": 9,
          "material": 0,
          "mode": 4
        }
      ]
    },
    {
      "name": "Object_2",
      "primitives": [
        {
          "attributes": {
            "NORMAL": 11,
            "POSITION": 10,
            "TANGENT": 12,
            "TEXCOORD_0": 13
          },
          "indices": 14,
          "material": 0,
          "mode": 4
        }
      ]
    },
    {
      "name": "Object_3",
      "primitives": [
        {
          "attributes": {
            "NORMAL": 16,
            "POSITION": 15,
            "TANGENT": 17,
            "TEXCOORD_0": 18
          },
          "indices": 19,
          "material": 0,
          "mode": 4
        }
      ]
    },
    {
      "name": "Object_4",
      "primitives": [
        {
          "attributes": {
            "NORMAL": 21,
            "POSITION": 20,
            "TANGENT": 22,
            "TEXCOORD_0": 23
          },
          "indices": 24,
          "material": 0,
          "mode": 4
        }
      ]
    }
  ],
  "nodes": [
    {
      "children": [
        1
      ],
      "matrix": [
        200.0,
        0.0,
        0.0,
        0.0,
        0.0,
        4.440892098500626e-14,
        -200.0,
        0.0,
        0.0,
        200.0,
        4.440892098500626e-14,
        0.0,
        0.0,
        0.0,
        0.0,
        1.0
      ],
      "name": "Sketchfab_model"
    },
    {
      "children": [
        2,
        3,
        4,
        5,
        6
      ],
      "name": "Mountain_Glacier_OBJ.obj.cleaner.materialmerger.gles"
    },
    {
      "mesh": 0,
      "name": "Object_2"
    },
    {
      "mesh": 1,
      "name": "Object_3"
    },
    {
      "mesh": 2,
      "name": "Object_4"
    },
    {
      "mesh": 3,
      "name": "Object_5"
    },
    {
      "mesh": 4,
      "name": "Object_6"
    }
  ],
  "samplers": [
    {
      "magFilter": 9729,
      "minFilter": 9987,
      "wrapS": 10497,
      "wrapT": 10497
    }
  ],
  "scene": 0,
  "scenes": [
    {
      "name": "Sketchfab_Scene",
      "nodes": [
        0
      ]
    }
  ],
  "textures": [
    {
      "sampler": 0,
      "source": 0
    },
    {
      "sampler": 0,
      "source": 1
    },
    {
      "sampler": 0,
      "source": 2
    }
  ]
}
